%TF.GenerationSoftware,KiCad,Pcbnew,9.0.1*%
%TF.CreationDate,2025-04-21T17:26:17+02:00*%
%TF.ProjectId,TIP3055VariablePowerSupply,54495033-3035-4355-9661-726961626c65,rev?*%
%TF.SameCoordinates,Original*%
%TF.FileFunction,Soldermask,Bot*%
%TF.FilePolarity,Negative*%
%FSLAX46Y46*%
G04 Gerber Fmt 4.6, Leading zero omitted, Abs format (unit mm)*
G04 Created by KiCad (PCBNEW 9.0.1) date 2025-04-21 17:26:17*
%MOMM*%
%LPD*%
G01*
G04 APERTURE LIST*
G04 Aperture macros list*
%AMRoundRect*
0 Rectangle with rounded corners*
0 $1 Rounding radius*
0 $2 $3 $4 $5 $6 $7 $8 $9 X,Y pos of 4 corners*
0 Add a 4 corners polygon primitive as box body*
4,1,4,$2,$3,$4,$5,$6,$7,$8,$9,$2,$3,0*
0 Add four circle primitives for the rounded corners*
1,1,$1+$1,$2,$3*
1,1,$1+$1,$4,$5*
1,1,$1+$1,$6,$7*
1,1,$1+$1,$8,$9*
0 Add four rect primitives between the rounded corners*
20,1,$1+$1,$2,$3,$4,$5,0*
20,1,$1+$1,$4,$5,$6,$7,0*
20,1,$1+$1,$6,$7,$8,$9,0*
20,1,$1+$1,$8,$9,$2,$3,0*%
G04 Aperture macros list end*
%ADD10RoundRect,0.038000X-0.900000X0.900000X-0.900000X-0.900000X0.900000X-0.900000X0.900000X0.900000X0*%
%ADD11RoundRect,0.038000X-0.800000X0.800000X-0.800000X-0.800000X0.800000X-0.800000X0.800000X0.800000X0*%
%ADD12RoundRect,0.038000X0.800000X0.800000X-0.800000X0.800000X-0.800000X-0.800000X0.800000X-0.800000X0*%
%ADD13RoundRect,0.038000X1.200000X1.200000X-1.200000X1.200000X-1.200000X-1.200000X1.200000X-1.200000X0*%
%ADD14RoundRect,0.038000X-1.000000X-2.250000X1.000000X-2.250000X1.000000X2.250000X-1.000000X2.250000X0*%
%ADD15O,2.076000X4.076000*%
%ADD16O,4.076000X2.076000*%
%ADD17RoundRect,0.038000X-0.900000X0.855000X-0.900000X-0.855000X0.900000X-0.855000X0.900000X0.855000X0*%
%ADD18RoundRect,0.038000X-0.750000X0.525000X-0.750000X-0.525000X0.750000X-0.525000X0.750000X0.525000X0*%
%ADD19RoundRect,0.038000X-1.250000X-1.750000X1.250000X-1.750000X1.250000X1.750000X-1.250000X1.750000X0*%
%ADD20RoundRect,0.038000X-1.200000X-1.200000X1.200000X-1.200000X1.200000X1.200000X-1.200000X1.200000X0*%
%ADD21RoundRect,0.038000X0.750000X-0.525000X0.750000X0.525000X-0.750000X0.525000X-0.750000X-0.525000X0*%
%ADD22RoundRect,0.038000X0.900000X0.900000X-0.900000X0.900000X-0.900000X-0.900000X0.900000X-0.900000X0*%
%ADD23RoundRect,0.256787X1.181213X-1.181213X1.181213X1.181213X-1.181213X1.181213X-1.181213X-1.181213X0*%
%ADD24RoundRect,0.038000X1.400000X-1.400000X1.400000X1.400000X-1.400000X1.400000X-1.400000X-1.400000X0*%
G04 APERTURE END LIST*
D10*
%TO.C,RV1*%
X168732755Y-105410000D03*
X166232755Y-105410000D03*
X163732755Y-105410000D03*
%TD*%
%TO.C,RV2*%
X139482755Y-105410000D03*
X136982755Y-105410000D03*
X134482755Y-105410000D03*
%TD*%
D11*
%TO.C,R3*%
X157302755Y-93980000D03*
X157302755Y-104140000D03*
%TD*%
D12*
%TO.C,R2*%
X154000000Y-95250000D03*
X138760000Y-95250000D03*
%TD*%
%TO.C,R1*%
X108142755Y-74370000D03*
X123382755Y-74370000D03*
%TD*%
D13*
%TO.C,C1*%
X119082755Y-102870000D03*
X111582755Y-102870000D03*
%TD*%
D14*
%TO.C,J1*%
X121122755Y-86360000D03*
D15*
X114922755Y-86360000D03*
D16*
X117922755Y-91060000D03*
%TD*%
D17*
%TO.C,Q1*%
X146767755Y-89915000D03*
X146767755Y-87635000D03*
X146767755Y-85355000D03*
%TD*%
D18*
%TO.C,Q2*%
X133172755Y-81280000D03*
X133172755Y-80010000D03*
X133172755Y-78740000D03*
%TD*%
D19*
%TO.C,Q4*%
X138252755Y-68580000D03*
X132777755Y-68580000D03*
X127302755Y-68580000D03*
%TD*%
D20*
%TO.C,R5*%
X171400000Y-68580000D03*
X146000000Y-68580000D03*
%TD*%
D12*
%TO.C,C2*%
X168180000Y-95250000D03*
X170180000Y-95250000D03*
%TD*%
D21*
%TO.C,Q3*%
X140000000Y-83820000D03*
X140000000Y-85090000D03*
X140000000Y-86360000D03*
%TD*%
D22*
%TO.C,D1*%
X109042755Y-68580000D03*
X111582755Y-68580000D03*
%TD*%
D11*
%TO.C,R4*%
X133172755Y-95250000D03*
X133172755Y-85090000D03*
%TD*%
D23*
%TO.C,J2*%
X169970255Y-88610000D03*
D24*
X169970255Y-83610000D03*
%TD*%
M02*
