M48
; DRILL file {KiCad 9.0.1} date 2025-04-21T17:26:13+0200
; FORMAT={-:-/ absolute / metric / decimal}
; #@! TF.CreationDate,2025-04-21T17:26:13+02:00
; #@! TF.GenerationSoftware,Kicad,Pcbnew,9.0.1
; #@! TF.FileFunction,Plated,1,2,PTH
FMAT,2
METRIC
; #@! TA.AperFunction,Plated,PTH,ComponentDrill
T1C0.750
; #@! TA.AperFunction,Plated,PTH,ComponentDrill
T2C0.800
; #@! TA.AperFunction,Plated,PTH,ComponentDrill
T3C0.900
; #@! TA.AperFunction,Plated,PTH,ComponentDrill
T4C1.000
; #@! TA.AperFunction,Plated,PTH,ComponentDrill
T5C1.200
; #@! TA.AperFunction,Plated,PTH,ComponentDrill
T6C1.300
; #@! TA.AperFunction,Plated,PTH,ComponentDrill
T7C1.500
%
G90
G05
T1
X133.173Y-78.74
X133.173Y-80.01
X133.173Y-81.28
X140.0Y-83.82
X140.0Y-85.09
X140.0Y-86.36
T2
X108.143Y-74.37
X123.383Y-74.37
X133.173Y-85.09
X133.173Y-95.25
X138.76Y-95.25
X154.0Y-95.25
X157.303Y-93.98
X157.303Y-104.14
X168.18Y-95.25
X170.18Y-95.25
T3
X109.043Y-68.58
X111.583Y-68.58
T4
X134.483Y-105.41
X136.983Y-105.41
X139.483Y-105.41
X146.768Y-85.355
X146.768Y-87.635
X146.768Y-89.915
X163.733Y-105.41
X166.233Y-105.41
X168.733Y-105.41
T5
X111.583Y-102.87
X119.083Y-102.87
X146.0Y-68.58
X171.4Y-68.58
T6
X169.97Y-83.61
X169.97Y-88.61
T7
X127.303Y-68.58
X132.778Y-68.58
X138.253Y-68.58
T4
G00X114.923Y-85.36
M15
G01X114.923Y-87.36
M16
G05
G00X116.923Y-91.06
M15
G01X118.923Y-91.06
M16
G05
G00X121.123Y-85.11
M15
G01X121.123Y-87.61
M16
G05
M30
