%TF.GenerationSoftware,KiCad,Pcbnew,9.0.1*%
%TF.CreationDate,2025-04-21T17:26:17+02:00*%
%TF.ProjectId,TIP3055VariablePowerSupply,54495033-3035-4355-9661-726961626c65,rev?*%
%TF.SameCoordinates,Original*%
%TF.FileFunction,Copper,L2,Bot*%
%TF.FilePolarity,Positive*%
%FSLAX46Y46*%
G04 Gerber Fmt 4.6, Leading zero omitted, Abs format (unit mm)*
G04 Created by KiCad (PCBNEW 9.0.1) date 2025-04-21 17:26:17*
%MOMM*%
%LPD*%
G01*
G04 APERTURE LIST*
G04 Aperture macros list*
%AMRoundRect*
0 Rectangle with rounded corners*
0 $1 Rounding radius*
0 $2 $3 $4 $5 $6 $7 $8 $9 X,Y pos of 4 corners*
0 Add a 4 corners polygon primitive as box body*
4,1,4,$2,$3,$4,$5,$6,$7,$8,$9,$2,$3,0*
0 Add four circle primitives for the rounded corners*
1,1,$1+$1,$2,$3*
1,1,$1+$1,$4,$5*
1,1,$1+$1,$6,$7*
1,1,$1+$1,$8,$9*
0 Add four rect primitives between the rounded corners*
20,1,$1+$1,$2,$3,$4,$5,0*
20,1,$1+$1,$4,$5,$6,$7,0*
20,1,$1+$1,$6,$7,$8,$9,0*
20,1,$1+$1,$8,$9,$2,$3,0*%
G04 Aperture macros list end*
%ADD10C,0.300000*%
%TA.AperFunction,NonConductor*%
%ADD11C,0.300000*%
%TD*%
%TA.AperFunction,ComponentPad*%
%ADD12R,1.800000X1.800000*%
%TD*%
%TA.AperFunction,ComponentPad*%
%ADD13R,1.600000X1.600000*%
%TD*%
%TA.AperFunction,ComponentPad*%
%ADD14R,2.400000X2.400000*%
%TD*%
%TA.AperFunction,ComponentPad*%
%ADD15R,2.000000X4.500000*%
%TD*%
%TA.AperFunction,ComponentPad*%
%ADD16O,2.000000X4.000000*%
%TD*%
%TA.AperFunction,ComponentPad*%
%ADD17O,4.000000X2.000000*%
%TD*%
%TA.AperFunction,ComponentPad*%
%ADD18R,1.800000X1.710000*%
%TD*%
%TA.AperFunction,ComponentPad*%
%ADD19R,1.500000X1.050000*%
%TD*%
%TA.AperFunction,ComponentPad*%
%ADD20R,2.500000X3.500000*%
%TD*%
%TA.AperFunction,ComponentPad*%
%ADD21RoundRect,0.250001X1.149999X-1.149999X1.149999X1.149999X-1.149999X1.149999X-1.149999X-1.149999X0*%
%TD*%
%TA.AperFunction,ComponentPad*%
%ADD22R,2.800000X2.800000*%
%TD*%
%TA.AperFunction,Conductor*%
%ADD23C,1.000000*%
%TD*%
%TA.AperFunction,Conductor*%
%ADD24C,3.000000*%
%TD*%
G04 APERTURE END LIST*
D10*
D11*
X163630828Y-65324510D02*
X162130828Y-65324510D01*
X162845114Y-65324510D02*
X162845114Y-66181653D01*
X163630828Y-66181653D02*
X162130828Y-66181653D01*
X163202257Y-66824511D02*
X163202257Y-67538797D01*
X163630828Y-66681654D02*
X162130828Y-67181654D01*
X162130828Y-67181654D02*
X163630828Y-67681654D01*
X163630828Y-68895939D02*
X163630828Y-68181653D01*
X163630828Y-68181653D02*
X162130828Y-68181653D01*
X163630828Y-69395939D02*
X162130828Y-69395939D01*
X162130828Y-69395939D02*
X163202257Y-69895939D01*
X163202257Y-69895939D02*
X162130828Y-70395939D01*
X162130828Y-70395939D02*
X163630828Y-70395939D01*
X163559400Y-71038797D02*
X163630828Y-71253083D01*
X163630828Y-71253083D02*
X163630828Y-71610225D01*
X163630828Y-71610225D02*
X163559400Y-71753083D01*
X163559400Y-71753083D02*
X163487971Y-71824511D01*
X163487971Y-71824511D02*
X163345114Y-71895940D01*
X163345114Y-71895940D02*
X163202257Y-71895940D01*
X163202257Y-71895940D02*
X163059400Y-71824511D01*
X163059400Y-71824511D02*
X162987971Y-71753083D01*
X162987971Y-71753083D02*
X162916542Y-71610225D01*
X162916542Y-71610225D02*
X162845114Y-71324511D01*
X162845114Y-71324511D02*
X162773685Y-71181654D01*
X162773685Y-71181654D02*
X162702257Y-71110225D01*
X162702257Y-71110225D02*
X162559400Y-71038797D01*
X162559400Y-71038797D02*
X162416542Y-71038797D01*
X162416542Y-71038797D02*
X162273685Y-71110225D01*
X162273685Y-71110225D02*
X162202257Y-71181654D01*
X162202257Y-71181654D02*
X162130828Y-71324511D01*
X162130828Y-71324511D02*
X162130828Y-71681654D01*
X162130828Y-71681654D02*
X162202257Y-71895940D01*
X162130828Y-72324511D02*
X162130828Y-73181654D01*
X163630828Y-72753082D02*
X162130828Y-72753082D01*
X163202257Y-73610225D02*
X163202257Y-74324511D01*
X163630828Y-73467368D02*
X162130828Y-73967368D01*
X162130828Y-73967368D02*
X163630828Y-74467368D01*
X163630828Y-74967367D02*
X162130828Y-74967367D01*
X162130828Y-74967367D02*
X162130828Y-75324510D01*
X162130828Y-75324510D02*
X162202257Y-75538796D01*
X162202257Y-75538796D02*
X162345114Y-75681653D01*
X162345114Y-75681653D02*
X162487971Y-75753082D01*
X162487971Y-75753082D02*
X162773685Y-75824510D01*
X162773685Y-75824510D02*
X162987971Y-75824510D01*
X162987971Y-75824510D02*
X163273685Y-75753082D01*
X163273685Y-75753082D02*
X163416542Y-75681653D01*
X163416542Y-75681653D02*
X163559400Y-75538796D01*
X163559400Y-75538796D02*
X163630828Y-75324510D01*
X163630828Y-75324510D02*
X163630828Y-74967367D01*
X162130828Y-77610224D02*
X163345114Y-77610224D01*
X163345114Y-77610224D02*
X163487971Y-77681653D01*
X163487971Y-77681653D02*
X163559400Y-77753082D01*
X163559400Y-77753082D02*
X163630828Y-77895939D01*
X163630828Y-77895939D02*
X163630828Y-78181653D01*
X163630828Y-78181653D02*
X163559400Y-78324510D01*
X163559400Y-78324510D02*
X163487971Y-78395939D01*
X163487971Y-78395939D02*
X163345114Y-78467367D01*
X163345114Y-78467367D02*
X162130828Y-78467367D01*
X163630828Y-79181653D02*
X162130828Y-79181653D01*
X162130828Y-79181653D02*
X163630828Y-80038796D01*
X163630828Y-80038796D02*
X162130828Y-80038796D01*
X163630828Y-80753082D02*
X162130828Y-80753082D01*
X162130828Y-81253083D02*
X163630828Y-81753083D01*
X163630828Y-81753083D02*
X162130828Y-82253083D01*
X162845114Y-82753082D02*
X162845114Y-83253082D01*
X163630828Y-83467368D02*
X163630828Y-82753082D01*
X163630828Y-82753082D02*
X162130828Y-82753082D01*
X162130828Y-82753082D02*
X162130828Y-83467368D01*
X163630828Y-84967368D02*
X162916542Y-84467368D01*
X163630828Y-84110225D02*
X162130828Y-84110225D01*
X162130828Y-84110225D02*
X162130828Y-84681654D01*
X162130828Y-84681654D02*
X162202257Y-84824511D01*
X162202257Y-84824511D02*
X162273685Y-84895940D01*
X162273685Y-84895940D02*
X162416542Y-84967368D01*
X162416542Y-84967368D02*
X162630828Y-84967368D01*
X162630828Y-84967368D02*
X162773685Y-84895940D01*
X162773685Y-84895940D02*
X162845114Y-84824511D01*
X162845114Y-84824511D02*
X162916542Y-84681654D01*
X162916542Y-84681654D02*
X162916542Y-84110225D01*
X163559400Y-85538797D02*
X163630828Y-85753083D01*
X163630828Y-85753083D02*
X163630828Y-86110225D01*
X163630828Y-86110225D02*
X163559400Y-86253083D01*
X163559400Y-86253083D02*
X163487971Y-86324511D01*
X163487971Y-86324511D02*
X163345114Y-86395940D01*
X163345114Y-86395940D02*
X163202257Y-86395940D01*
X163202257Y-86395940D02*
X163059400Y-86324511D01*
X163059400Y-86324511D02*
X162987971Y-86253083D01*
X162987971Y-86253083D02*
X162916542Y-86110225D01*
X162916542Y-86110225D02*
X162845114Y-85824511D01*
X162845114Y-85824511D02*
X162773685Y-85681654D01*
X162773685Y-85681654D02*
X162702257Y-85610225D01*
X162702257Y-85610225D02*
X162559400Y-85538797D01*
X162559400Y-85538797D02*
X162416542Y-85538797D01*
X162416542Y-85538797D02*
X162273685Y-85610225D01*
X162273685Y-85610225D02*
X162202257Y-85681654D01*
X162202257Y-85681654D02*
X162130828Y-85824511D01*
X162130828Y-85824511D02*
X162130828Y-86181654D01*
X162130828Y-86181654D02*
X162202257Y-86395940D01*
X163630828Y-87038796D02*
X162130828Y-87038796D01*
X162130828Y-87538797D02*
X162130828Y-88395940D01*
X163630828Y-87967368D02*
X162130828Y-87967368D01*
X162916542Y-89181654D02*
X163630828Y-89181654D01*
X162130828Y-88681654D02*
X162916542Y-89181654D01*
X162916542Y-89181654D02*
X162130828Y-89681654D01*
D12*
%TO.P,RV1,3,3*%
%TO.N,Net-(R3-Pad2)*%
X168732755Y-105410000D03*
%TO.P,RV1,2,2*%
%TO.N,Net-(Q2-B)*%
X166232755Y-105410000D03*
%TO.P,RV1,1,1*%
%TO.N,Net-(J2-Pin_2)*%
X163732755Y-105410000D03*
%TD*%
%TO.P,RV2,3,3*%
%TO.N,Net-(J2-Pin_2)*%
X139482755Y-105410000D03*
%TO.P,RV2,2,2*%
%TO.N,Net-(R4-Pad2)*%
X136982755Y-105410000D03*
%TO.P,RV2,1,1*%
%TO.N,GND*%
X134482755Y-105410000D03*
%TD*%
D13*
%TO.P,R3,1*%
%TO.N,Net-(Q1-E)*%
X157302755Y-93980000D03*
%TO.P,R3,2*%
%TO.N,Net-(R3-Pad2)*%
X157302755Y-104140000D03*
%TD*%
%TO.P,R2,1*%
%TO.N,+24V*%
X154000000Y-95250000D03*
%TO.P,R2,2*%
%TO.N,Net-(Q1-B)*%
X138760000Y-95250000D03*
%TD*%
%TO.P,R1,2*%
%TO.N,Net-(D1-A)*%
X108142755Y-74370000D03*
%TO.P,R1,1*%
%TO.N,+24V*%
X123382755Y-74370000D03*
%TD*%
D14*
%TO.P,C1,1*%
%TO.N,+24V*%
X119082755Y-102870000D03*
%TO.P,C1,2*%
%TO.N,GND*%
X111582755Y-102870000D03*
%TD*%
D15*
%TO.P,J1,1*%
%TO.N,+24V*%
X121122755Y-86360000D03*
D16*
%TO.P,J1,2*%
%TO.N,GND*%
X114922755Y-86360000D03*
D17*
%TO.P,J1,3*%
X117922755Y-91060000D03*
%TD*%
D18*
%TO.P,Q1,3,B*%
%TO.N,Net-(Q1-B)*%
X146767755Y-89915000D03*
%TO.P,Q1,2,C*%
%TO.N,+24V*%
X146767755Y-87635000D03*
%TO.P,Q1,1,E*%
%TO.N,Net-(Q1-E)*%
X146767755Y-85355000D03*
%TD*%
D19*
%TO.P,Q2,3,C*%
%TO.N,Net-(Q2-C)*%
X133172755Y-81280000D03*
%TO.P,Q2,2,B*%
%TO.N,Net-(Q2-B)*%
X133172755Y-80010000D03*
%TO.P,Q2,1,E*%
%TO.N,Net-(Q1-E)*%
X133172755Y-78740000D03*
%TD*%
D20*
%TO.P,Q4,3,E*%
%TO.N,Net-(Q4-E)*%
X138252755Y-68580000D03*
%TO.P,Q4,2,C*%
%TO.N,+24V*%
X132777755Y-68580000D03*
%TO.P,Q4,1,B*%
%TO.N,Net-(Q1-E)*%
X127302755Y-68580000D03*
%TD*%
D14*
%TO.P,R5,2*%
%TO.N,Net-(J2-Pin_2)*%
X171400000Y-68580000D03*
%TO.P,R5,1*%
%TO.N,Net-(Q4-E)*%
X146000000Y-68580000D03*
%TD*%
D13*
%TO.P,C2,2*%
%TO.N,GND*%
X168180000Y-95250000D03*
%TO.P,C2,1*%
%TO.N,Net-(J2-Pin_2)*%
X170180000Y-95250000D03*
%TD*%
D19*
%TO.P,Q3,3,C*%
%TO.N,Net-(Q1-B)*%
X140000000Y-83820000D03*
%TO.P,Q3,2,B*%
%TO.N,Net-(Q2-C)*%
X140000000Y-85090000D03*
%TO.P,Q3,1,E*%
%TO.N,GND*%
X140000000Y-86360000D03*
%TD*%
D12*
%TO.P,D1,2,A*%
%TO.N,Net-(D1-A)*%
X109042755Y-68580000D03*
%TO.P,D1,1,K*%
%TO.N,GND*%
X111582755Y-68580000D03*
%TD*%
D13*
%TO.P,R4,2*%
%TO.N,Net-(R4-Pad2)*%
X133172755Y-95250000D03*
%TO.P,R4,1*%
%TO.N,Net-(Q2-C)*%
X133172755Y-85090000D03*
%TD*%
D21*
%TO.P,J2,1,Pin_1*%
%TO.N,GND*%
X169970255Y-88610000D03*
D22*
%TO.P,J2,2,Pin_2*%
%TO.N,Net-(J2-Pin_2)*%
X169970255Y-83610000D03*
%TD*%
D23*
%TO.N,Net-(J2-Pin_2)*%
X167850000Y-83610000D02*
X169970255Y-83610000D01*
X167640000Y-83820000D02*
X167850000Y-83610000D01*
X166370000Y-83820000D02*
X167640000Y-83820000D01*
X170180000Y-92710000D02*
X166370000Y-92710000D01*
X166370000Y-92710000D02*
X166370000Y-83820000D01*
X170180000Y-95250000D02*
X170180000Y-92710000D01*
X172720000Y-95742490D02*
X172227510Y-95250000D01*
X172227510Y-95250000D02*
X170180000Y-95250000D01*
X172720000Y-109151000D02*
X172720000Y-95742490D01*
X164000000Y-109151000D02*
X172720000Y-109151000D01*
D24*
%TO.N,Net-(Q4-E)*%
X138252755Y-68580000D02*
X146000000Y-68580000D01*
D23*
%TO.N,Net-(Q1-E)*%
X156942755Y-86000000D02*
X157000000Y-86000000D01*
X157000000Y-86000000D02*
X157302755Y-86302755D01*
X157302755Y-86302755D02*
X157302755Y-93980000D01*
X156297755Y-85355000D02*
X156942755Y-86000000D01*
X146767755Y-85355000D02*
X156297755Y-85355000D01*
%TO.N,+24V*%
X154000000Y-96000000D02*
X159000000Y-96000000D01*
X159000000Y-96000000D02*
X159000000Y-64770000D01*
X159000000Y-64770000D02*
X131902755Y-64770000D01*
X154000000Y-95250000D02*
X154000000Y-96000000D01*
X154000000Y-88137245D02*
X154000000Y-95250000D01*
X153492755Y-87630000D02*
X154000000Y-88137245D01*
%TO.N,Net-(Q1-B)*%
X144000000Y-95000000D02*
X144000000Y-90000000D01*
X143750000Y-95250000D02*
X144000000Y-95000000D01*
%TO.N,+24V*%
X152232755Y-87630000D02*
X153492755Y-87630000D01*
%TO.N,Net-(Q1-B)*%
X138760000Y-95250000D02*
X143750000Y-95250000D01*
%TO.N,+24V*%
X146767755Y-87635000D02*
X152227755Y-87635000D01*
X152227755Y-87635000D02*
X152232755Y-87630000D01*
%TO.N,Net-(Q1-B)*%
X144000000Y-90000000D02*
X146682755Y-90000000D01*
X144000000Y-84000000D02*
X144000000Y-90000000D01*
X143820000Y-83820000D02*
X144000000Y-84000000D01*
X140000000Y-83820000D02*
X143820000Y-83820000D01*
X146682755Y-90000000D02*
X146767755Y-89915000D01*
%TO.N,Net-(Q2-C)*%
X133172755Y-85090000D02*
X140000000Y-85090000D01*
%TO.N,Net-(J2-Pin_2)*%
X163732755Y-105410000D02*
X163732755Y-108883755D01*
X164000000Y-109151000D02*
X139633755Y-109151000D01*
X163732755Y-108883755D02*
X164000000Y-109151000D01*
%TO.N,Net-(Q2-B)*%
X130632755Y-80010000D02*
X133172755Y-80010000D01*
X171272755Y-99060000D02*
X135712755Y-99060000D01*
X171272755Y-107950000D02*
X171272755Y-99060000D01*
X166232755Y-107950000D02*
X171272755Y-107950000D01*
X135712755Y-99060000D02*
X135712755Y-90170000D01*
X130632755Y-90170000D02*
X130632755Y-80010000D01*
X166232755Y-105410000D02*
X166232755Y-107950000D01*
X135712755Y-90170000D02*
X130632755Y-90170000D01*
%TO.N,Net-(R4-Pad2)*%
X136982755Y-103017245D02*
X136982755Y-105410000D01*
X137000000Y-102000000D02*
X137000000Y-103000000D01*
X133345510Y-102000000D02*
X137000000Y-102000000D01*
X137000000Y-103000000D02*
X136982755Y-103017245D01*
X133172755Y-101827245D02*
X133345510Y-102000000D01*
X133172755Y-95250000D02*
X133172755Y-101827245D01*
%TO.N,Net-(R3-Pad2)*%
X168732755Y-101600000D02*
X168732755Y-105410000D01*
X157302755Y-101600000D02*
X168732755Y-101600000D01*
X157302755Y-104140000D02*
X157302755Y-101600000D01*
D24*
%TO.N,+24V*%
X121122755Y-86360000D02*
X125732755Y-86360000D01*
X125732755Y-86360000D02*
X125732755Y-76380000D01*
X123722755Y-74370000D02*
X123382755Y-74370000D01*
X125732755Y-76380000D02*
X123722755Y-74370000D01*
X125732755Y-102870000D02*
X125732755Y-86360000D01*
X119082755Y-102870000D02*
X125732755Y-102870000D01*
D23*
%TO.N,Net-(D1-A)*%
X109042755Y-73470000D02*
X108142755Y-74370000D01*
X109042755Y-68580000D02*
X109042755Y-73470000D01*
%TO.N,Net-(Q1-E)*%
X146767755Y-78740000D02*
X146767755Y-85355000D01*
X133172755Y-78740000D02*
X146767755Y-78740000D01*
X133172755Y-72390000D02*
X133172755Y-78740000D01*
X127302755Y-68580000D02*
X127302755Y-72390000D01*
X127302755Y-72390000D02*
X133172755Y-72390000D01*
%TO.N,Net-(Q2-C)*%
X133172755Y-81280000D02*
X133172755Y-85090000D01*
D24*
%TO.N,+24V*%
X121742755Y-64770000D02*
X121742755Y-72730000D01*
X131902755Y-64770000D02*
X121742755Y-64770000D01*
X132777755Y-65645000D02*
X131902755Y-64770000D01*
X132777755Y-68580000D02*
X132777755Y-65645000D01*
X121742755Y-72730000D02*
X123382755Y-74370000D01*
D23*
%TO.N,Net-(J2-Pin_2)*%
X139633755Y-109151000D02*
X139482755Y-109000000D01*
X139482755Y-109000000D02*
X139482755Y-105410000D01*
D24*
X170000000Y-83610000D02*
X169970255Y-83610000D01*
X170420000Y-68580000D02*
X170000000Y-69000000D01*
X170000000Y-69000000D02*
X170000000Y-83610000D01*
X171400000Y-68580000D02*
X170420000Y-68580000D01*
%TD*%
%TA.AperFunction,Conductor*%
%TO.N,GND*%
G36*
X174442539Y-62520185D02*
G01*
X174488294Y-62572989D01*
X174499500Y-62624500D01*
X174499500Y-111375500D01*
X174479815Y-111442539D01*
X174427011Y-111488294D01*
X174375500Y-111499500D01*
X106624500Y-111499500D01*
X106557461Y-111479815D01*
X106511706Y-111427011D01*
X106500500Y-111375500D01*
X106500500Y-101622155D01*
X109882755Y-101622155D01*
X109882755Y-102620000D01*
X111034273Y-102620000D01*
X111023644Y-102638409D01*
X110982755Y-102791009D01*
X110982755Y-102948991D01*
X111023644Y-103101591D01*
X111034273Y-103120000D01*
X109882755Y-103120000D01*
X109882755Y-104117844D01*
X109889156Y-104177372D01*
X109889158Y-104177379D01*
X109939400Y-104312086D01*
X109939404Y-104312093D01*
X110025564Y-104427187D01*
X110025567Y-104427190D01*
X110140661Y-104513350D01*
X110140668Y-104513354D01*
X110275375Y-104563596D01*
X110275382Y-104563598D01*
X110334910Y-104569999D01*
X110334927Y-104570000D01*
X111332755Y-104570000D01*
X111332755Y-103418482D01*
X111351164Y-103429111D01*
X111503764Y-103470000D01*
X111661746Y-103470000D01*
X111814346Y-103429111D01*
X111832755Y-103418482D01*
X111832755Y-104570000D01*
X112830583Y-104570000D01*
X112830599Y-104569999D01*
X112890127Y-104563598D01*
X112890134Y-104563596D01*
X113024841Y-104513354D01*
X113024848Y-104513350D01*
X113139942Y-104427190D01*
X113139945Y-104427187D01*
X113226105Y-104312093D01*
X113226109Y-104312086D01*
X113276351Y-104177379D01*
X113276353Y-104177372D01*
X113282754Y-104117844D01*
X113282755Y-104117827D01*
X113282755Y-103120000D01*
X112131237Y-103120000D01*
X112141866Y-103101591D01*
X112182755Y-102948991D01*
X112182755Y-102791009D01*
X112168785Y-102738872D01*
X117082255Y-102738872D01*
X117082255Y-103001127D01*
X117106495Y-103185236D01*
X117116485Y-103261116D01*
X117161499Y-103429111D01*
X117184357Y-103514418D01*
X117184360Y-103514428D01*
X117284708Y-103756690D01*
X117284713Y-103756700D01*
X117365642Y-103896873D01*
X117382255Y-103958872D01*
X117382255Y-104117869D01*
X117382256Y-104117876D01*
X117388663Y-104177483D01*
X117438957Y-104312328D01*
X117438961Y-104312335D01*
X117525207Y-104427544D01*
X117525210Y-104427547D01*
X117640419Y-104513793D01*
X117640426Y-104513797D01*
X117685373Y-104530561D01*
X117775272Y-104564091D01*
X117834882Y-104570500D01*
X117993880Y-104570499D01*
X118055881Y-104587112D01*
X118196050Y-104668039D01*
X118196055Y-104668041D01*
X118196058Y-104668043D01*
X118438336Y-104768398D01*
X118691639Y-104836270D01*
X118951635Y-104870500D01*
X118951642Y-104870500D01*
X125863868Y-104870500D01*
X125863875Y-104870500D01*
X126123871Y-104836270D01*
X126377174Y-104768398D01*
X126619452Y-104668043D01*
X126846558Y-104536924D01*
X127054606Y-104377282D01*
X127054610Y-104377277D01*
X127054615Y-104377274D01*
X127240029Y-104191860D01*
X127240032Y-104191855D01*
X127240037Y-104191851D01*
X127399679Y-103983803D01*
X127530798Y-103756697D01*
X127631153Y-103514419D01*
X127699025Y-103261116D01*
X127733255Y-103001120D01*
X127733255Y-86228880D01*
X127733255Y-76248880D01*
X127705350Y-76036923D01*
X127699026Y-75988884D01*
X127631153Y-75735581D01*
X127530798Y-75493303D01*
X127525313Y-75483802D01*
X127399679Y-75266197D01*
X127297725Y-75133329D01*
X127297725Y-75133328D01*
X127297723Y-75133327D01*
X127240037Y-75058148D01*
X127240033Y-75058143D01*
X125044611Y-72862721D01*
X125044604Y-72862715D01*
X124926886Y-72772388D01*
X124926885Y-72772387D01*
X124836558Y-72703075D01*
X124609455Y-72571958D01*
X124609445Y-72571953D01*
X124367183Y-72471605D01*
X124367172Y-72471601D01*
X124359325Y-72469499D01*
X124359325Y-72469498D01*
X124325931Y-72460550D01*
X124325913Y-72460539D01*
X124270346Y-72428457D01*
X123779574Y-71937685D01*
X123746089Y-71876362D01*
X123743255Y-71850004D01*
X123743255Y-66894500D01*
X123762940Y-66827461D01*
X123815744Y-66781706D01*
X123867255Y-66770500D01*
X125428255Y-66770500D01*
X125495294Y-66790185D01*
X125541049Y-66842989D01*
X125552255Y-66894500D01*
X125552255Y-70377870D01*
X125552256Y-70377876D01*
X125558663Y-70437483D01*
X125608957Y-70572328D01*
X125608961Y-70572335D01*
X125695207Y-70687544D01*
X125695210Y-70687547D01*
X125810419Y-70773793D01*
X125810426Y-70773797D01*
X125855373Y-70790561D01*
X125945272Y-70824091D01*
X126004882Y-70830500D01*
X126178255Y-70830499D01*
X126245294Y-70850183D01*
X126291049Y-70902987D01*
X126302255Y-70954499D01*
X126302255Y-72291459D01*
X126302255Y-72488541D01*
X126302255Y-72488543D01*
X126302254Y-72488543D01*
X126340702Y-72681829D01*
X126340705Y-72681839D01*
X126416119Y-72863907D01*
X126416126Y-72863920D01*
X126525615Y-73027781D01*
X126525618Y-73027785D01*
X126664969Y-73167136D01*
X126664973Y-73167139D01*
X126828834Y-73276628D01*
X126828847Y-73276635D01*
X127010915Y-73352049D01*
X127010920Y-73352051D01*
X127010924Y-73352051D01*
X127010925Y-73352052D01*
X127204211Y-73390500D01*
X127204214Y-73390500D01*
X132048255Y-73390500D01*
X132115294Y-73410185D01*
X132161049Y-73462989D01*
X132172255Y-73514500D01*
X132172255Y-77715249D01*
X132152570Y-77782288D01*
X132122567Y-77814515D01*
X132065212Y-77857451D01*
X132065206Y-77857457D01*
X131978961Y-77972664D01*
X131978957Y-77972671D01*
X131928663Y-78107517D01*
X131922256Y-78167116D01*
X131922255Y-78167135D01*
X131922256Y-78885500D01*
X131902572Y-78952539D01*
X131849768Y-78998294D01*
X131798256Y-79009500D01*
X130534212Y-79009500D01*
X130340925Y-79047947D01*
X130340915Y-79047950D01*
X130158847Y-79123364D01*
X130158834Y-79123371D01*
X129994973Y-79232860D01*
X129994969Y-79232863D01*
X129855618Y-79372214D01*
X129855615Y-79372218D01*
X129746126Y-79536079D01*
X129746119Y-79536092D01*
X129670705Y-79718160D01*
X129670702Y-79718170D01*
X129632255Y-79911456D01*
X129632255Y-79911459D01*
X129632255Y-90071459D01*
X129632255Y-90268541D01*
X129632255Y-90268543D01*
X129632254Y-90268543D01*
X129670702Y-90461829D01*
X129670705Y-90461839D01*
X129746119Y-90643907D01*
X129746126Y-90643920D01*
X129855615Y-90807781D01*
X129855618Y-90807785D01*
X129994969Y-90947136D01*
X129994973Y-90947139D01*
X130158834Y-91056628D01*
X130158847Y-91056635D01*
X130280086Y-91106853D01*
X130340920Y-91132051D01*
X130340924Y-91132051D01*
X130340925Y-91132052D01*
X130534211Y-91170500D01*
X130534214Y-91170500D01*
X134588255Y-91170500D01*
X134655294Y-91190185D01*
X134701049Y-91242989D01*
X134712255Y-91294500D01*
X134712255Y-94317099D01*
X134692570Y-94384138D01*
X134639766Y-94429893D01*
X134570608Y-94439837D01*
X134507052Y-94410812D01*
X134469278Y-94352034D01*
X134467579Y-94345616D01*
X134466847Y-94342520D01*
X134454732Y-94310039D01*
X134450810Y-94299522D01*
X134416552Y-94207671D01*
X134416548Y-94207664D01*
X134330302Y-94092455D01*
X134330299Y-94092452D01*
X134215090Y-94006206D01*
X134215083Y-94006202D01*
X134080237Y-93955908D01*
X134080238Y-93955908D01*
X134020638Y-93949501D01*
X134020636Y-93949500D01*
X134020628Y-93949500D01*
X134020619Y-93949500D01*
X132324884Y-93949500D01*
X132324878Y-93949501D01*
X132265271Y-93955908D01*
X132130426Y-94006202D01*
X132130419Y-94006206D01*
X132015210Y-94092452D01*
X132015207Y-94092455D01*
X131928961Y-94207664D01*
X131928957Y-94207671D01*
X131878663Y-94342517D01*
X131874189Y-94384138D01*
X131872256Y-94402123D01*
X131872255Y-94402135D01*
X131872255Y-96097870D01*
X131872256Y-96097876D01*
X131878663Y-96157483D01*
X131928957Y-96292328D01*
X131928961Y-96292335D01*
X131990471Y-96374500D01*
X132015209Y-96407546D01*
X132122566Y-96487914D01*
X132164437Y-96543847D01*
X132172255Y-96587180D01*
X132172255Y-101925786D01*
X132172255Y-101925788D01*
X132172254Y-101925788D01*
X132210702Y-102119074D01*
X132210705Y-102119084D01*
X132286119Y-102301152D01*
X132286126Y-102301165D01*
X132395614Y-102465025D01*
X132395615Y-102465026D01*
X132395616Y-102465027D01*
X132534973Y-102604384D01*
X132534974Y-102604385D01*
X132568370Y-102637780D01*
X132568371Y-102637782D01*
X132655089Y-102724500D01*
X132707729Y-102777140D01*
X132798445Y-102837754D01*
X132871596Y-102886632D01*
X132949028Y-102918705D01*
X133053674Y-102962051D01*
X133246964Y-103000499D01*
X133246967Y-103000500D01*
X133246969Y-103000500D01*
X133444050Y-103000500D01*
X135858255Y-103000500D01*
X135925294Y-103020185D01*
X135971049Y-103072989D01*
X135982255Y-103124500D01*
X135982255Y-103927209D01*
X135978059Y-103941496D01*
X135978777Y-103956370D01*
X135968414Y-103974343D01*
X135962570Y-103994248D01*
X135950728Y-104005019D01*
X135943879Y-104016900D01*
X135923930Y-104029395D01*
X135915142Y-104037390D01*
X135908541Y-104040797D01*
X135840424Y-104066204D01*
X135798396Y-104097665D01*
X135789225Y-104102401D01*
X135764641Y-104107154D01*
X135741183Y-104115904D01*
X135730929Y-104113673D01*
X135720626Y-104115666D01*
X135697375Y-104106374D01*
X135672910Y-104101052D01*
X135658028Y-104091488D01*
X135624843Y-104066646D01*
X135624841Y-104066645D01*
X135490134Y-104016403D01*
X135490127Y-104016401D01*
X135430599Y-104010000D01*
X134732755Y-104010000D01*
X134732755Y-104976988D01*
X134675748Y-104944075D01*
X134548581Y-104910000D01*
X134416929Y-104910000D01*
X134289762Y-104944075D01*
X134232755Y-104976988D01*
X134232755Y-104010000D01*
X133534910Y-104010000D01*
X133475382Y-104016401D01*
X133475375Y-104016403D01*
X133340668Y-104066645D01*
X133340661Y-104066649D01*
X133225567Y-104152809D01*
X133225564Y-104152812D01*
X133139404Y-104267906D01*
X133139400Y-104267913D01*
X133089158Y-104402620D01*
X133089156Y-104402627D01*
X133082755Y-104462155D01*
X133082755Y-105160000D01*
X134049743Y-105160000D01*
X134016830Y-105217007D01*
X133982755Y-105344174D01*
X133982755Y-105475826D01*
X134016830Y-105602993D01*
X134049743Y-105660000D01*
X133082755Y-105660000D01*
X133082755Y-106357844D01*
X133089156Y-106417372D01*
X133089158Y-106417379D01*
X133139400Y-106552086D01*
X133139404Y-106552093D01*
X133225564Y-106667187D01*
X133225567Y-106667190D01*
X133340661Y-106753350D01*
X133340668Y-106753354D01*
X133475375Y-106803596D01*
X133475382Y-106803598D01*
X133534910Y-106809999D01*
X133534927Y-106810000D01*
X134232755Y-106810000D01*
X134232755Y-105843012D01*
X134289762Y-105875925D01*
X134416929Y-105910000D01*
X134548581Y-105910000D01*
X134675748Y-105875925D01*
X134732755Y-105843012D01*
X134732755Y-106810000D01*
X135430583Y-106810000D01*
X135430599Y-106809999D01*
X135490127Y-106803598D01*
X135490131Y-106803597D01*
X135624845Y-106753351D01*
X135658026Y-106728512D01*
X135723489Y-106704094D01*
X135791763Y-106718945D01*
X135806639Y-106728504D01*
X135840424Y-106753796D01*
X135840427Y-106753797D01*
X135975272Y-106804091D01*
X135975271Y-106804091D01*
X135982199Y-106804835D01*
X136034882Y-106810500D01*
X137930627Y-106810499D01*
X137990238Y-106804091D01*
X138054840Y-106779996D01*
X138125084Y-106753797D01*
X138125084Y-106753796D01*
X138125086Y-106753796D01*
X138158444Y-106728823D01*
X138223906Y-106704406D01*
X138289575Y-106717874D01*
X138298774Y-106722616D01*
X138340424Y-106753796D01*
X138408516Y-106779192D01*
X138415075Y-106782574D01*
X138435228Y-106801790D01*
X138457521Y-106818478D01*
X138460165Y-106825568D01*
X138465642Y-106830790D01*
X138472207Y-106857851D01*
X138481939Y-106883942D01*
X138482255Y-106892790D01*
X138482255Y-109098541D01*
X138482255Y-109098543D01*
X138482254Y-109098543D01*
X138520702Y-109291829D01*
X138520705Y-109291839D01*
X138596119Y-109473907D01*
X138596126Y-109473920D01*
X138705614Y-109637780D01*
X138705615Y-109637781D01*
X138705616Y-109637782D01*
X138844973Y-109777139D01*
X138844974Y-109777140D01*
X138856615Y-109788780D01*
X138856616Y-109788782D01*
X138995970Y-109928136D01*
X138995974Y-109928140D01*
X139159834Y-110037628D01*
X139159847Y-110037635D01*
X139288588Y-110090961D01*
X139331499Y-110108735D01*
X139341919Y-110113051D01*
X139438567Y-110132275D01*
X139486890Y-110141887D01*
X139535213Y-110151500D01*
X139535214Y-110151500D01*
X139535215Y-110151500D01*
X139732295Y-110151500D01*
X163901455Y-110151500D01*
X163901460Y-110151501D01*
X164098541Y-110151501D01*
X164098546Y-110151500D01*
X172621459Y-110151500D01*
X172818541Y-110151500D01*
X172818543Y-110151500D01*
X172948582Y-110125632D01*
X173011835Y-110113051D01*
X173193914Y-110037632D01*
X173357782Y-109928139D01*
X173497139Y-109788782D01*
X173606632Y-109624914D01*
X173682051Y-109442835D01*
X173694632Y-109379582D01*
X173720500Y-109249543D01*
X173720500Y-95643946D01*
X173682052Y-95450660D01*
X173682051Y-95450659D01*
X173682051Y-95450655D01*
X173650300Y-95374000D01*
X173606635Y-95268582D01*
X173606628Y-95268569D01*
X173497139Y-95104708D01*
X173497136Y-95104704D01*
X173354686Y-94962254D01*
X173354655Y-94962225D01*
X173008989Y-94616559D01*
X173008969Y-94616537D01*
X172865295Y-94472863D01*
X172865291Y-94472860D01*
X172701430Y-94363371D01*
X172701421Y-94363366D01*
X172628825Y-94333296D01*
X172572675Y-94310038D01*
X172519346Y-94287949D01*
X172519342Y-94287948D01*
X172519338Y-94287946D01*
X172422698Y-94268724D01*
X172326054Y-94249500D01*
X172326051Y-94249500D01*
X171517180Y-94249500D01*
X171450141Y-94229815D01*
X171417913Y-94199811D01*
X171412469Y-94192539D01*
X171337546Y-94092454D01*
X171337545Y-94092453D01*
X171230188Y-94012085D01*
X171188318Y-93956151D01*
X171180500Y-93912819D01*
X171180500Y-92611456D01*
X171142052Y-92418170D01*
X171142051Y-92418169D01*
X171142051Y-92418165D01*
X171142049Y-92418160D01*
X171066635Y-92236092D01*
X171066628Y-92236079D01*
X170957139Y-92072218D01*
X170957136Y-92072214D01*
X170817785Y-91932863D01*
X170817781Y-91932860D01*
X170653920Y-91823371D01*
X170653907Y-91823364D01*
X170471839Y-91747950D01*
X170471829Y-91747947D01*
X170278543Y-91709500D01*
X170278541Y-91709500D01*
X167494500Y-91709500D01*
X167427461Y-91689815D01*
X167381706Y-91637011D01*
X167370500Y-91585500D01*
X167370500Y-87410014D01*
X168070255Y-87410014D01*
X168070255Y-88360000D01*
X169370254Y-88360000D01*
X169345234Y-88420402D01*
X169320255Y-88545981D01*
X169320255Y-88674019D01*
X169345234Y-88799598D01*
X169370254Y-88860000D01*
X168070255Y-88860000D01*
X168070255Y-89809985D01*
X168080748Y-89912689D01*
X168080749Y-89912696D01*
X168135894Y-90079112D01*
X168135898Y-90079123D01*
X168227939Y-90228344D01*
X168351910Y-90352315D01*
X168501131Y-90444356D01*
X168501136Y-90444358D01*
X168667558Y-90499505D01*
X168667565Y-90499506D01*
X168770269Y-90509999D01*
X168770282Y-90510000D01*
X169720255Y-90510000D01*
X169720255Y-89210001D01*
X169780657Y-89235021D01*
X169906236Y-89260000D01*
X170034274Y-89260000D01*
X170159853Y-89235021D01*
X170220255Y-89210001D01*
X170220255Y-90510000D01*
X171170228Y-90510000D01*
X171170240Y-90509999D01*
X171272944Y-90499506D01*
X171272951Y-90499505D01*
X171439373Y-90444358D01*
X171439378Y-90444356D01*
X171588599Y-90352315D01*
X171712570Y-90228344D01*
X171804611Y-90079123D01*
X171804616Y-90079112D01*
X171859760Y-89912696D01*
X171859761Y-89912689D01*
X171870254Y-89809985D01*
X171870255Y-89809972D01*
X171870255Y-88860000D01*
X170570256Y-88860000D01*
X170595276Y-88799598D01*
X170620255Y-88674019D01*
X170620255Y-88545981D01*
X170595276Y-88420402D01*
X170570256Y-88360000D01*
X171870255Y-88360000D01*
X171870255Y-87410027D01*
X171870254Y-87410014D01*
X171859761Y-87307310D01*
X171859760Y-87307303D01*
X171804613Y-87140881D01*
X171804611Y-87140876D01*
X171712570Y-86991655D01*
X171588599Y-86867684D01*
X171439378Y-86775643D01*
X171439373Y-86775641D01*
X171272951Y-86720494D01*
X171272944Y-86720493D01*
X171170240Y-86710000D01*
X170220255Y-86710000D01*
X170220255Y-88009998D01*
X170159853Y-87984979D01*
X170034274Y-87960000D01*
X169906236Y-87960000D01*
X169780657Y-87984979D01*
X169720255Y-88009998D01*
X169720255Y-86710000D01*
X168770269Y-86710000D01*
X168667565Y-86720493D01*
X168667558Y-86720494D01*
X168501136Y-86775641D01*
X168501131Y-86775643D01*
X168351910Y-86867684D01*
X168227939Y-86991655D01*
X168135898Y-87140876D01*
X168135896Y-87140881D01*
X168080749Y-87307303D01*
X168080748Y-87307310D01*
X168070255Y-87410014D01*
X167370500Y-87410014D01*
X167370500Y-84944500D01*
X167390185Y-84877461D01*
X167442989Y-84831706D01*
X167494500Y-84820500D01*
X167738542Y-84820500D01*
X167752347Y-84817753D01*
X167835188Y-84801275D01*
X167921568Y-84784093D01*
X167991157Y-84790322D01*
X168046334Y-84833186D01*
X168069577Y-84899076D01*
X168069755Y-84905710D01*
X168069755Y-85057869D01*
X168069756Y-85057876D01*
X168076163Y-85117483D01*
X168126457Y-85252328D01*
X168126461Y-85252335D01*
X168212707Y-85367544D01*
X168212710Y-85367547D01*
X168327919Y-85453793D01*
X168327926Y-85453797D01*
X168462772Y-85504091D01*
X168462771Y-85504091D01*
X168469699Y-85504835D01*
X168522382Y-85510500D01*
X169317353Y-85510499D01*
X169349446Y-85514724D01*
X169385076Y-85524270D01*
X169579139Y-85576270D01*
X169839135Y-85610500D01*
X169839142Y-85610500D01*
X170131113Y-85610500D01*
X170131120Y-85610500D01*
X170391116Y-85576270D01*
X170590576Y-85522824D01*
X170620809Y-85514724D01*
X170652902Y-85510499D01*
X171418126Y-85510499D01*
X171418127Y-85510499D01*
X171477738Y-85504091D01*
X171612586Y-85453796D01*
X171727801Y-85367546D01*
X171814051Y-85252331D01*
X171864346Y-85117483D01*
X171870755Y-85057873D01*
X171870754Y-84345819D01*
X171880194Y-84298365D01*
X171886969Y-84282011D01*
X171898398Y-84254419D01*
X171966270Y-84001116D01*
X172000500Y-83741120D01*
X172000500Y-70579444D01*
X172020185Y-70512405D01*
X172072989Y-70466650D01*
X172077047Y-70464883D01*
X172143196Y-70437483D01*
X172286697Y-70378043D01*
X172286986Y-70377876D01*
X172426874Y-70297112D01*
X172488874Y-70280499D01*
X172647871Y-70280499D01*
X172647872Y-70280499D01*
X172707483Y-70274091D01*
X172842331Y-70223796D01*
X172957546Y-70137546D01*
X173043796Y-70022331D01*
X173094091Y-69887483D01*
X173100500Y-69827873D01*
X173100499Y-69668872D01*
X173117111Y-69606874D01*
X173198043Y-69466697D01*
X173298398Y-69224419D01*
X173366270Y-68971116D01*
X173400500Y-68711120D01*
X173400500Y-68448880D01*
X173366270Y-68188884D01*
X173298398Y-67935581D01*
X173277943Y-67886199D01*
X173198046Y-67693309D01*
X173198041Y-67693299D01*
X173117112Y-67553125D01*
X173100499Y-67491125D01*
X173100499Y-67332129D01*
X173100498Y-67332123D01*
X173099497Y-67322812D01*
X173094091Y-67272517D01*
X173080546Y-67236202D01*
X173043797Y-67137671D01*
X173043793Y-67137664D01*
X172957547Y-67022455D01*
X172957544Y-67022452D01*
X172842335Y-66936206D01*
X172842328Y-66936202D01*
X172707482Y-66885908D01*
X172707483Y-66885908D01*
X172647883Y-66879501D01*
X172647881Y-66879500D01*
X172647873Y-66879500D01*
X172647865Y-66879500D01*
X172488872Y-66879500D01*
X172426872Y-66862887D01*
X172365512Y-66827461D01*
X172348156Y-66817440D01*
X172286699Y-66781958D01*
X172286690Y-66781953D01*
X172044428Y-66681605D01*
X172044421Y-66681603D01*
X172044419Y-66681602D01*
X171791116Y-66613730D01*
X171733339Y-66606123D01*
X171531127Y-66579500D01*
X171531120Y-66579500D01*
X170288880Y-66579500D01*
X170288872Y-66579500D01*
X170141768Y-66598868D01*
X170141767Y-66598868D01*
X170028886Y-66613728D01*
X169824858Y-66668397D01*
X169824859Y-66668398D01*
X169775580Y-66681602D01*
X169533314Y-66781951D01*
X169533300Y-66781958D01*
X169306191Y-66913079D01*
X169236118Y-66966850D01*
X169236117Y-66966851D01*
X169098150Y-67072715D01*
X169098143Y-67072721D01*
X168492721Y-67678143D01*
X168492715Y-67678150D01*
X168447039Y-67737677D01*
X168333073Y-67886199D01*
X168333072Y-67886201D01*
X168282330Y-67974091D01*
X168282330Y-67974092D01*
X168201958Y-68113299D01*
X168201954Y-68113309D01*
X168101602Y-68355580D01*
X168033728Y-68608887D01*
X168020270Y-68711118D01*
X168020270Y-68711119D01*
X167999500Y-68868872D01*
X167999500Y-82485500D01*
X167998393Y-82489267D01*
X167999267Y-82493095D01*
X167988629Y-82522519D01*
X167979815Y-82552539D01*
X167976848Y-82555109D01*
X167975513Y-82558803D01*
X167950649Y-82577811D01*
X167927011Y-82598294D01*
X167922225Y-82599541D01*
X167920006Y-82601238D01*
X167905093Y-82604006D01*
X167885596Y-82609088D01*
X167880552Y-82609500D01*
X167751459Y-82609500D01*
X167668489Y-82626004D01*
X167661504Y-82627393D01*
X167661496Y-82627394D01*
X167558167Y-82647947D01*
X167558159Y-82647950D01*
X167504834Y-82670037D01*
X167504834Y-82670038D01*
X167459315Y-82688892D01*
X167376089Y-82723366D01*
X167376079Y-82723371D01*
X167263490Y-82798602D01*
X167196813Y-82819480D01*
X167194599Y-82819500D01*
X166271457Y-82819500D01*
X166078170Y-82857947D01*
X166078160Y-82857950D01*
X165896092Y-82933364D01*
X165896079Y-82933371D01*
X165732218Y-83042860D01*
X165732214Y-83042863D01*
X165592863Y-83182214D01*
X165592861Y-83182217D01*
X165483371Y-83346079D01*
X165483364Y-83346092D01*
X165407950Y-83528160D01*
X165407947Y-83528170D01*
X165369500Y-83721456D01*
X165369500Y-83721459D01*
X165369500Y-92808541D01*
X165369500Y-92808543D01*
X165369499Y-92808543D01*
X165407947Y-93001829D01*
X165407950Y-93001839D01*
X165483364Y-93183907D01*
X165483371Y-93183920D01*
X165592860Y-93347781D01*
X165592863Y-93347785D01*
X165732214Y-93487136D01*
X165732218Y-93487139D01*
X165896079Y-93596628D01*
X165896092Y-93596635D01*
X166078160Y-93672049D01*
X166078165Y-93672051D01*
X166078169Y-93672051D01*
X166078170Y-93672052D01*
X166271456Y-93710500D01*
X166271459Y-93710500D01*
X166468541Y-93710500D01*
X167249295Y-93710500D01*
X167316334Y-93730185D01*
X167362089Y-93782989D01*
X167372033Y-93852147D01*
X167343008Y-93915703D01*
X167284230Y-93953477D01*
X167277806Y-93955178D01*
X167272620Y-93956403D01*
X167137913Y-94006645D01*
X167137906Y-94006649D01*
X167022812Y-94092809D01*
X167022809Y-94092812D01*
X166936649Y-94207906D01*
X166936645Y-94207913D01*
X166886403Y-94342620D01*
X166886401Y-94342627D01*
X166880000Y-94402155D01*
X166880000Y-95000000D01*
X167864314Y-95000000D01*
X167859920Y-95004394D01*
X167807259Y-95095606D01*
X167780000Y-95197339D01*
X167780000Y-95302661D01*
X167807259Y-95404394D01*
X167859920Y-95495606D01*
X167864314Y-95500000D01*
X166880000Y-95500000D01*
X166880000Y-96097844D01*
X166886401Y-96157372D01*
X166886403Y-96157379D01*
X166936645Y-96292086D01*
X166936649Y-96292093D01*
X167022809Y-96407187D01*
X167022812Y-96407190D01*
X167137906Y-96493350D01*
X167137913Y-96493354D01*
X167272620Y-96543596D01*
X167272627Y-96543598D01*
X167332155Y-96549999D01*
X167332172Y-96550000D01*
X167930000Y-96550000D01*
X167930000Y-95565686D01*
X167934394Y-95570080D01*
X168025606Y-95622741D01*
X168127339Y-95650000D01*
X168232661Y-95650000D01*
X168334394Y-95622741D01*
X168425606Y-95570080D01*
X168430000Y-95565686D01*
X168430000Y-96550000D01*
X169027828Y-96550000D01*
X169027844Y-96549999D01*
X169087372Y-96543598D01*
X169087375Y-96543597D01*
X169135949Y-96525480D01*
X169205640Y-96520494D01*
X169222610Y-96525477D01*
X169272517Y-96544091D01*
X169332127Y-96550500D01*
X171027872Y-96550499D01*
X171087483Y-96544091D01*
X171222331Y-96493796D01*
X171337546Y-96407546D01*
X171417914Y-96300188D01*
X171421569Y-96297451D01*
X171423467Y-96293297D01*
X171449281Y-96276706D01*
X171473847Y-96258318D01*
X171479476Y-96257302D01*
X171482245Y-96255523D01*
X171517180Y-96250500D01*
X171595500Y-96250500D01*
X171662539Y-96270185D01*
X171708294Y-96322989D01*
X171719500Y-96374500D01*
X171719500Y-97977745D01*
X171699815Y-98044784D01*
X171647011Y-98090539D01*
X171577853Y-98100483D01*
X171570615Y-98098877D01*
X171570564Y-98099137D01*
X171371298Y-98059500D01*
X171371296Y-98059500D01*
X136837255Y-98059500D01*
X136770216Y-98039815D01*
X136724461Y-97987011D01*
X136713255Y-97935500D01*
X136713255Y-90071456D01*
X136674807Y-89878170D01*
X136674806Y-89878169D01*
X136674806Y-89878165D01*
X136632938Y-89777085D01*
X136599390Y-89696092D01*
X136599383Y-89696079D01*
X136489894Y-89532218D01*
X136489891Y-89532214D01*
X136350540Y-89392863D01*
X136350536Y-89392860D01*
X136186675Y-89283371D01*
X136186662Y-89283364D01*
X136004594Y-89207950D01*
X136004584Y-89207947D01*
X135811298Y-89169500D01*
X135811296Y-89169500D01*
X131757255Y-89169500D01*
X131690216Y-89149815D01*
X131644461Y-89097011D01*
X131633255Y-89045500D01*
X131633255Y-86022900D01*
X131652940Y-85955861D01*
X131705744Y-85910106D01*
X131774902Y-85900162D01*
X131838458Y-85929187D01*
X131876232Y-85987965D01*
X131877932Y-85994385D01*
X131878664Y-85997484D01*
X131928957Y-86132328D01*
X131928961Y-86132335D01*
X132015207Y-86247544D01*
X132015210Y-86247547D01*
X132130419Y-86333793D01*
X132130426Y-86333797D01*
X132265272Y-86384091D01*
X132265271Y-86384091D01*
X132272199Y-86384835D01*
X132324882Y-86390500D01*
X134020627Y-86390499D01*
X134080238Y-86384091D01*
X134215086Y-86333796D01*
X134330301Y-86247546D01*
X134410669Y-86140188D01*
X134466602Y-86098318D01*
X134509935Y-86090500D01*
X138679138Y-86090500D01*
X138745547Y-86110000D01*
X139144329Y-86110000D01*
X139157584Y-86110710D01*
X139202127Y-86115500D01*
X139714170Y-86115499D01*
X139699925Y-86129745D01*
X139650556Y-86215255D01*
X139625000Y-86310630D01*
X139625000Y-86409370D01*
X139650556Y-86504745D01*
X139699925Y-86590255D01*
X139719670Y-86610000D01*
X138750000Y-86610000D01*
X138750000Y-86932844D01*
X138756401Y-86992372D01*
X138756403Y-86992379D01*
X138806645Y-87127086D01*
X138806649Y-87127093D01*
X138892809Y-87242187D01*
X138892812Y-87242190D01*
X139007906Y-87328350D01*
X139007913Y-87328354D01*
X139142620Y-87378596D01*
X139142627Y-87378598D01*
X139202155Y-87384999D01*
X139202172Y-87385000D01*
X139750000Y-87385000D01*
X139750000Y-86640330D01*
X139769745Y-86660075D01*
X139855255Y-86709444D01*
X139950630Y-86735000D01*
X140049370Y-86735000D01*
X140144745Y-86709444D01*
X140230255Y-86660075D01*
X140250000Y-86640330D01*
X140250000Y-87385000D01*
X140797828Y-87385000D01*
X140797844Y-87384999D01*
X140857372Y-87378598D01*
X140857379Y-87378596D01*
X140992086Y-87328354D01*
X140992093Y-87328350D01*
X141107187Y-87242190D01*
X141107190Y-87242187D01*
X141193350Y-87127093D01*
X141193354Y-87127086D01*
X141243596Y-86992379D01*
X141243598Y-86992372D01*
X141249999Y-86932844D01*
X141250000Y-86932827D01*
X141250000Y-86610000D01*
X140280330Y-86610000D01*
X140300075Y-86590255D01*
X140349444Y-86504745D01*
X140375000Y-86409370D01*
X140375000Y-86310630D01*
X140349444Y-86215255D01*
X140300075Y-86129745D01*
X140285829Y-86115499D01*
X140797872Y-86115499D01*
X140842423Y-86110709D01*
X140855675Y-86110000D01*
X141250000Y-86110000D01*
X141250000Y-85787172D01*
X141249999Y-85787158D01*
X141244993Y-85740602D01*
X141244993Y-85714093D01*
X141250500Y-85662873D01*
X141250499Y-84944499D01*
X141270183Y-84877461D01*
X141322987Y-84831706D01*
X141374499Y-84820500D01*
X142875500Y-84820500D01*
X142942539Y-84840185D01*
X142988294Y-84892989D01*
X142999500Y-84944500D01*
X142999500Y-94125500D01*
X142979815Y-94192539D01*
X142927011Y-94238294D01*
X142875500Y-94249500D01*
X140097180Y-94249500D01*
X140030141Y-94229815D01*
X139997913Y-94199811D01*
X139917546Y-94092454D01*
X139894709Y-94075358D01*
X139802335Y-94006206D01*
X139802328Y-94006202D01*
X139667482Y-93955908D01*
X139667483Y-93955908D01*
X139607883Y-93949501D01*
X139607881Y-93949500D01*
X139607873Y-93949500D01*
X139607864Y-93949500D01*
X137912129Y-93949500D01*
X137912123Y-93949501D01*
X137852516Y-93955908D01*
X137717671Y-94006202D01*
X137717664Y-94006206D01*
X137602455Y-94092452D01*
X137602452Y-94092455D01*
X137516206Y-94207664D01*
X137516202Y-94207671D01*
X137465908Y-94342517D01*
X137461434Y-94384138D01*
X137459501Y-94402123D01*
X137459500Y-94402135D01*
X137459500Y-96097870D01*
X137459501Y-96097876D01*
X137465908Y-96157483D01*
X137516202Y-96292328D01*
X137516206Y-96292335D01*
X137602452Y-96407544D01*
X137602455Y-96407547D01*
X137717664Y-96493793D01*
X137717671Y-96493797D01*
X137852517Y-96544091D01*
X137852516Y-96544091D01*
X137859444Y-96544835D01*
X137912127Y-96550500D01*
X139607872Y-96550499D01*
X139667483Y-96544091D01*
X139802331Y-96493796D01*
X139917546Y-96407546D01*
X139997914Y-96300188D01*
X140053847Y-96258318D01*
X140097180Y-96250500D01*
X143848542Y-96250500D01*
X143879566Y-96244328D01*
X143945188Y-96231275D01*
X144041836Y-96212051D01*
X144095165Y-96189961D01*
X144223914Y-96136632D01*
X144387782Y-96027139D01*
X144527139Y-95887782D01*
X144527140Y-95887780D01*
X144777139Y-95637782D01*
X144822376Y-95570080D01*
X144841248Y-95541837D01*
X144841248Y-95541836D01*
X144886632Y-95473914D01*
X144962051Y-95291835D01*
X144995436Y-95124000D01*
X145000500Y-95098543D01*
X145000500Y-91124500D01*
X145003050Y-91115814D01*
X145001762Y-91106853D01*
X145012740Y-91082812D01*
X145020185Y-91057461D01*
X145027025Y-91051533D01*
X145030787Y-91043297D01*
X145053021Y-91029007D01*
X145072989Y-91011706D01*
X145083503Y-91009418D01*
X145089565Y-91005523D01*
X145124500Y-91000500D01*
X145353033Y-91000500D01*
X145420072Y-91020185D01*
X145452298Y-91050187D01*
X145510209Y-91127546D01*
X145556398Y-91162123D01*
X145625419Y-91213793D01*
X145625426Y-91213797D01*
X145760272Y-91264091D01*
X145760271Y-91264091D01*
X145767199Y-91264835D01*
X145819882Y-91270500D01*
X147715627Y-91270499D01*
X147775238Y-91264091D01*
X147910086Y-91213796D01*
X148025301Y-91127546D01*
X148111551Y-91012331D01*
X148161846Y-90877483D01*
X148168255Y-90817873D01*
X148168254Y-89012128D01*
X148161846Y-88952517D01*
X148111797Y-88818330D01*
X148109912Y-88791973D01*
X148104296Y-88766148D01*
X148107133Y-88753107D01*
X148106814Y-88748642D01*
X148111798Y-88731668D01*
X148117582Y-88716160D01*
X148159456Y-88660230D01*
X148224922Y-88635816D01*
X148233762Y-88635500D01*
X152326296Y-88635500D01*
X152339453Y-88632882D01*
X152363645Y-88630500D01*
X152875500Y-88630500D01*
X152942539Y-88650185D01*
X152988294Y-88702989D01*
X152999500Y-88754500D01*
X152999500Y-93912819D01*
X152979815Y-93979858D01*
X152949812Y-94012085D01*
X152842452Y-94092455D01*
X152756206Y-94207664D01*
X152756202Y-94207671D01*
X152705908Y-94342517D01*
X152701434Y-94384138D01*
X152699501Y-94402123D01*
X152699500Y-94402135D01*
X152699500Y-96097870D01*
X152699501Y-96097876D01*
X152705908Y-96157483D01*
X152756202Y-96292328D01*
X152756206Y-96292335D01*
X152842452Y-96407544D01*
X152842455Y-96407547D01*
X152957664Y-96493793D01*
X152957671Y-96493797D01*
X152999497Y-96509397D01*
X153092517Y-96544091D01*
X153107864Y-96545741D01*
X153172413Y-96572478D01*
X153197709Y-96600139D01*
X153222862Y-96637784D01*
X153362214Y-96777136D01*
X153362218Y-96777139D01*
X153526079Y-96886628D01*
X153526092Y-96886635D01*
X153708160Y-96962049D01*
X153708165Y-96962051D01*
X153708169Y-96962051D01*
X153708170Y-96962052D01*
X153901456Y-97000500D01*
X153901459Y-97000500D01*
X159098543Y-97000500D01*
X159228582Y-96974632D01*
X159291835Y-96962051D01*
X159473914Y-96886632D01*
X159637782Y-96777139D01*
X159777139Y-96637782D01*
X159886632Y-96473914D01*
X159962051Y-96291835D01*
X159988798Y-96157372D01*
X160000500Y-96098543D01*
X160000500Y-90339979D01*
X161472503Y-90339979D01*
X164289155Y-90339979D01*
X164289155Y-64669010D01*
X161472503Y-64669010D01*
X161472503Y-90339979D01*
X160000500Y-90339979D01*
X160000500Y-64671456D01*
X160000499Y-64671454D01*
X159994609Y-64641839D01*
X159962052Y-64478170D01*
X159962051Y-64478169D01*
X159962051Y-64478165D01*
X159962049Y-64478160D01*
X159886635Y-64296092D01*
X159886628Y-64296079D01*
X159777139Y-64132218D01*
X159777136Y-64132214D01*
X159637785Y-63992863D01*
X159637781Y-63992860D01*
X159473920Y-63883371D01*
X159473907Y-63883364D01*
X159291839Y-63807950D01*
X159291829Y-63807947D01*
X159098543Y-63769500D01*
X159098541Y-63769500D01*
X133782751Y-63769500D01*
X133715712Y-63749815D01*
X133695070Y-63733181D01*
X133224611Y-63262721D01*
X133224604Y-63262715D01*
X133106886Y-63172388D01*
X133106885Y-63172387D01*
X133016558Y-63103075D01*
X132789455Y-62971958D01*
X132789445Y-62971954D01*
X132547174Y-62871602D01*
X132293871Y-62803729D01*
X132293870Y-62803728D01*
X132293867Y-62803728D01*
X132163873Y-62786615D01*
X132033882Y-62769500D01*
X132033875Y-62769500D01*
X121873875Y-62769500D01*
X121611635Y-62769500D01*
X121611627Y-62769500D01*
X121380527Y-62799926D01*
X121351639Y-62803730D01*
X121098336Y-62871602D01*
X121098326Y-62871605D01*
X120856064Y-62971953D01*
X120856054Y-62971958D01*
X120628951Y-63103075D01*
X120420903Y-63262718D01*
X120235473Y-63448148D01*
X120075830Y-63656196D01*
X119944713Y-63883299D01*
X119944708Y-63883309D01*
X119844360Y-64125571D01*
X119844357Y-64125581D01*
X119798673Y-64296079D01*
X119776485Y-64378885D01*
X119742255Y-64638872D01*
X119742255Y-72861127D01*
X119759370Y-72991118D01*
X119759370Y-72991119D01*
X119770532Y-73075909D01*
X119776484Y-73121116D01*
X119838363Y-73352051D01*
X119843564Y-73371459D01*
X119844356Y-73374415D01*
X119844360Y-73374426D01*
X119924765Y-73568542D01*
X119944712Y-73616697D01*
X120075831Y-73843803D01*
X120145143Y-73934131D01*
X120235470Y-74051849D01*
X120235476Y-74051856D01*
X122060898Y-75877278D01*
X122060903Y-75877282D01*
X122060904Y-75877283D01*
X122136082Y-75934968D01*
X122136083Y-75934970D01*
X122136084Y-75934970D01*
X122268956Y-76036927D01*
X122496054Y-76168041D01*
X122496064Y-76168046D01*
X122738326Y-76268394D01*
X122738336Y-76268398D01*
X122779575Y-76279448D01*
X122835162Y-76311541D01*
X123695936Y-77172315D01*
X123729421Y-77233638D01*
X123732255Y-77259996D01*
X123732255Y-84235500D01*
X123712570Y-84302539D01*
X123659766Y-84348294D01*
X123608255Y-84359500D01*
X122747254Y-84359500D01*
X122680215Y-84339815D01*
X122634460Y-84287011D01*
X122623254Y-84235500D01*
X122623254Y-84062129D01*
X122623253Y-84062123D01*
X122623252Y-84062116D01*
X122616846Y-84002517D01*
X122616323Y-84001116D01*
X122566552Y-83867671D01*
X122566548Y-83867664D01*
X122480302Y-83752455D01*
X122480299Y-83752452D01*
X122365090Y-83666206D01*
X122365083Y-83666202D01*
X122230237Y-83615908D01*
X122230238Y-83615908D01*
X122170638Y-83609501D01*
X122170636Y-83609500D01*
X122170628Y-83609500D01*
X122170619Y-83609500D01*
X120074884Y-83609500D01*
X120074878Y-83609501D01*
X120015271Y-83615908D01*
X119880426Y-83666202D01*
X119880419Y-83666206D01*
X119765210Y-83752452D01*
X119765207Y-83752455D01*
X119678961Y-83867664D01*
X119678957Y-83867671D01*
X119628663Y-84002517D01*
X119622256Y-84062116D01*
X119622256Y-84062123D01*
X119622255Y-84062135D01*
X119622255Y-84987218D01*
X119602570Y-85054257D01*
X119596637Y-85062695D01*
X119554595Y-85117486D01*
X119455827Y-85246201D01*
X119324713Y-85473299D01*
X119324708Y-85473309D01*
X119224360Y-85715571D01*
X119224357Y-85715581D01*
X119159975Y-85955861D01*
X119156485Y-85968885D01*
X119122255Y-86228872D01*
X119122255Y-86491127D01*
X119146137Y-86672516D01*
X119156485Y-86751116D01*
X119224357Y-87004418D01*
X119224360Y-87004428D01*
X119324708Y-87246690D01*
X119324713Y-87246700D01*
X119455830Y-87473803D01*
X119596630Y-87657294D01*
X119621825Y-87722463D01*
X119622255Y-87732781D01*
X119622255Y-88657870D01*
X119622256Y-88657876D01*
X119628663Y-88717483D01*
X119678957Y-88852328D01*
X119678961Y-88852335D01*
X119765207Y-88967544D01*
X119765210Y-88967547D01*
X119880419Y-89053793D01*
X119880426Y-89053797D01*
X120015272Y-89104091D01*
X120015271Y-89104091D01*
X120022199Y-89104835D01*
X120074882Y-89110500D01*
X122170627Y-89110499D01*
X122230238Y-89104091D01*
X122365086Y-89053796D01*
X122480301Y-88967546D01*
X122566551Y-88852331D01*
X122616846Y-88717483D01*
X122623255Y-88657873D01*
X122623255Y-88484500D01*
X122642940Y-88417461D01*
X122695744Y-88371706D01*
X122747255Y-88360500D01*
X123608255Y-88360500D01*
X123675294Y-88380185D01*
X123721049Y-88432989D01*
X123732255Y-88484500D01*
X123732255Y-100745500D01*
X123712570Y-100812539D01*
X123659766Y-100858294D01*
X123608255Y-100869500D01*
X118951627Y-100869500D01*
X118720527Y-100899926D01*
X118691639Y-100903730D01*
X118604753Y-100927011D01*
X118438336Y-100971602D01*
X118438326Y-100971605D01*
X118196064Y-101071953D01*
X118196059Y-101071956D01*
X118055879Y-101152888D01*
X117993881Y-101169500D01*
X117834885Y-101169500D01*
X117834878Y-101169501D01*
X117775271Y-101175908D01*
X117640426Y-101226202D01*
X117640419Y-101226206D01*
X117525210Y-101312452D01*
X117525207Y-101312455D01*
X117438961Y-101427664D01*
X117438957Y-101427671D01*
X117388663Y-101562517D01*
X117382256Y-101622116D01*
X117382255Y-101622135D01*
X117382255Y-101781126D01*
X117365643Y-101843125D01*
X117284711Y-101983304D01*
X117284708Y-101983309D01*
X117184360Y-102225571D01*
X117184357Y-102225581D01*
X117120199Y-102465025D01*
X117116485Y-102478885D01*
X117082255Y-102738872D01*
X112168785Y-102738872D01*
X112141866Y-102638409D01*
X112131237Y-102620000D01*
X113282755Y-102620000D01*
X113282755Y-101622172D01*
X113282754Y-101622155D01*
X113276353Y-101562627D01*
X113276351Y-101562620D01*
X113226109Y-101427913D01*
X113226105Y-101427906D01*
X113139945Y-101312812D01*
X113139942Y-101312809D01*
X113024848Y-101226649D01*
X113024841Y-101226645D01*
X112890134Y-101176403D01*
X112890127Y-101176401D01*
X112830599Y-101170000D01*
X111832755Y-101170000D01*
X111832755Y-102321517D01*
X111814346Y-102310889D01*
X111661746Y-102270000D01*
X111503764Y-102270000D01*
X111351164Y-102310889D01*
X111332755Y-102321517D01*
X111332755Y-101170000D01*
X110334910Y-101170000D01*
X110275382Y-101176401D01*
X110275375Y-101176403D01*
X110140668Y-101226645D01*
X110140661Y-101226649D01*
X110025567Y-101312809D01*
X110025564Y-101312812D01*
X109939404Y-101427906D01*
X109939400Y-101427913D01*
X109889158Y-101562620D01*
X109889156Y-101562627D01*
X109882755Y-101622155D01*
X106500500Y-101622155D01*
X106500500Y-90810000D01*
X115443653Y-90810000D01*
X116489743Y-90810000D01*
X116456830Y-90867007D01*
X116422755Y-90994174D01*
X116422755Y-91125826D01*
X116456830Y-91252993D01*
X116489743Y-91310000D01*
X115443653Y-91310000D01*
X115459689Y-91411247D01*
X115532652Y-91635802D01*
X115639840Y-91846171D01*
X115778621Y-92037186D01*
X115945568Y-92204133D01*
X116136583Y-92342914D01*
X116346952Y-92450102D01*
X116571507Y-92523065D01*
X116571506Y-92523065D01*
X116804703Y-92560000D01*
X117672755Y-92560000D01*
X117672755Y-91560000D01*
X118172755Y-91560000D01*
X118172755Y-92560000D01*
X119040807Y-92560000D01*
X119274002Y-92523065D01*
X119498557Y-92450102D01*
X119708926Y-92342914D01*
X119899941Y-92204133D01*
X120066888Y-92037186D01*
X120205669Y-91846171D01*
X120312857Y-91635802D01*
X120385820Y-91411247D01*
X120401857Y-91310000D01*
X119355767Y-91310000D01*
X119388680Y-91252993D01*
X119422755Y-91125826D01*
X119422755Y-90994174D01*
X119388680Y-90867007D01*
X119355767Y-90810000D01*
X120401857Y-90810000D01*
X120385820Y-90708752D01*
X120312857Y-90484197D01*
X120205669Y-90273828D01*
X120066888Y-90082813D01*
X119899941Y-89915866D01*
X119708926Y-89777085D01*
X119498557Y-89669897D01*
X119274002Y-89596934D01*
X119274003Y-89596934D01*
X119040807Y-89560000D01*
X118172755Y-89560000D01*
X118172755Y-90560000D01*
X117672755Y-90560000D01*
X117672755Y-89560000D01*
X116804703Y-89560000D01*
X116571507Y-89596934D01*
X116346952Y-89669897D01*
X116136583Y-89777085D01*
X115945568Y-89915866D01*
X115778621Y-90082813D01*
X115639840Y-90273828D01*
X115532652Y-90484197D01*
X115459689Y-90708752D01*
X115443653Y-90810000D01*
X106500500Y-90810000D01*
X106500500Y-85241947D01*
X113422755Y-85241947D01*
X113422755Y-86110000D01*
X114422755Y-86110000D01*
X114422755Y-86610000D01*
X113422755Y-86610000D01*
X113422755Y-87478052D01*
X113459689Y-87711247D01*
X113532652Y-87935802D01*
X113639840Y-88146171D01*
X113778621Y-88337186D01*
X113945568Y-88504133D01*
X114136583Y-88642914D01*
X114346950Y-88750102D01*
X114571499Y-88823063D01*
X114571505Y-88823065D01*
X114672755Y-88839101D01*
X114672755Y-87793012D01*
X114729762Y-87825925D01*
X114856929Y-87860000D01*
X114988581Y-87860000D01*
X115115748Y-87825925D01*
X115172755Y-87793012D01*
X115172755Y-88839100D01*
X115274004Y-88823065D01*
X115274010Y-88823063D01*
X115498559Y-88750102D01*
X115708926Y-88642914D01*
X115899941Y-88504133D01*
X116066888Y-88337186D01*
X116205669Y-88146171D01*
X116312857Y-87935802D01*
X116385820Y-87711247D01*
X116422755Y-87478052D01*
X116422755Y-86610000D01*
X115422755Y-86610000D01*
X115422755Y-86110000D01*
X116422755Y-86110000D01*
X116422755Y-85241947D01*
X116385820Y-85008752D01*
X116312857Y-84784197D01*
X116205669Y-84573828D01*
X116066888Y-84382813D01*
X115899941Y-84215866D01*
X115708926Y-84077085D01*
X115498557Y-83969897D01*
X115274002Y-83896934D01*
X115172755Y-83880897D01*
X115172755Y-84926988D01*
X115115748Y-84894075D01*
X114988581Y-84860000D01*
X114856929Y-84860000D01*
X114729762Y-84894075D01*
X114672755Y-84926988D01*
X114672755Y-83880897D01*
X114571507Y-83896934D01*
X114346952Y-83969897D01*
X114136583Y-84077085D01*
X113945568Y-84215866D01*
X113778621Y-84382813D01*
X113639840Y-84573828D01*
X113532652Y-84784197D01*
X113459689Y-85008752D01*
X113422755Y-85241947D01*
X106500500Y-85241947D01*
X106500500Y-73522135D01*
X106842255Y-73522135D01*
X106842255Y-75217870D01*
X106842256Y-75217876D01*
X106848663Y-75277483D01*
X106898957Y-75412328D01*
X106898961Y-75412335D01*
X106985207Y-75527544D01*
X106985210Y-75527547D01*
X107100419Y-75613793D01*
X107100426Y-75613797D01*
X107235272Y-75664091D01*
X107235271Y-75664091D01*
X107242199Y-75664835D01*
X107294882Y-75670500D01*
X108990627Y-75670499D01*
X109050238Y-75664091D01*
X109185086Y-75613796D01*
X109300301Y-75527546D01*
X109386551Y-75412331D01*
X109436846Y-75277483D01*
X109443255Y-75217873D01*
X109443254Y-74535780D01*
X109462938Y-74468742D01*
X109479568Y-74448105D01*
X109680533Y-74247141D01*
X109680537Y-74247139D01*
X109819894Y-74107782D01*
X109929387Y-73943914D01*
X109933441Y-73934128D01*
X110004805Y-73761837D01*
X110004806Y-73761835D01*
X110012018Y-73725581D01*
X110033676Y-73616697D01*
X110043255Y-73568541D01*
X110043255Y-70062790D01*
X110062940Y-69995751D01*
X110107652Y-69954054D01*
X110115513Y-69949744D01*
X110185086Y-69923796D01*
X110245882Y-69878283D01*
X110253568Y-69874071D01*
X110279473Y-69868391D01*
X110304323Y-69859123D01*
X110313072Y-69861026D01*
X110321817Y-69859109D01*
X110346680Y-69868336D01*
X110372596Y-69873974D01*
X110387257Y-69883396D01*
X110387321Y-69883420D01*
X110387345Y-69883453D01*
X110387481Y-69883540D01*
X110440662Y-69923350D01*
X110440668Y-69923354D01*
X110575375Y-69973596D01*
X110575382Y-69973598D01*
X110634910Y-69979999D01*
X110634927Y-69980000D01*
X111332755Y-69980000D01*
X111332755Y-68955277D01*
X111409061Y-68999333D01*
X111523511Y-69030000D01*
X111641999Y-69030000D01*
X111756449Y-68999333D01*
X111832755Y-68955277D01*
X111832755Y-69980000D01*
X112530583Y-69980000D01*
X112530599Y-69979999D01*
X112590127Y-69973598D01*
X112590134Y-69973596D01*
X112724841Y-69923354D01*
X112724848Y-69923350D01*
X112839942Y-69837190D01*
X112839945Y-69837187D01*
X112926105Y-69722093D01*
X112926109Y-69722086D01*
X112976351Y-69587379D01*
X112976353Y-69587372D01*
X112982754Y-69527844D01*
X112982755Y-69527827D01*
X112982755Y-68830000D01*
X111958033Y-68830000D01*
X112002088Y-68753694D01*
X112032755Y-68639244D01*
X112032755Y-68520756D01*
X112002088Y-68406306D01*
X111958033Y-68330000D01*
X112982755Y-68330000D01*
X112982755Y-67632172D01*
X112982754Y-67632155D01*
X112976353Y-67572627D01*
X112976351Y-67572620D01*
X112926109Y-67437913D01*
X112926105Y-67437906D01*
X112839945Y-67322812D01*
X112839942Y-67322809D01*
X112724848Y-67236649D01*
X112724841Y-67236645D01*
X112590134Y-67186403D01*
X112590127Y-67186401D01*
X112530599Y-67180000D01*
X111832755Y-67180000D01*
X111832755Y-68204722D01*
X111756449Y-68160667D01*
X111641999Y-68130000D01*
X111523511Y-68130000D01*
X111409061Y-68160667D01*
X111332755Y-68204722D01*
X111332755Y-67180000D01*
X110634910Y-67180000D01*
X110575382Y-67186401D01*
X110575375Y-67186403D01*
X110440668Y-67236645D01*
X110440662Y-67236649D01*
X110387481Y-67276460D01*
X110322017Y-67300877D01*
X110253744Y-67286025D01*
X110238861Y-67276460D01*
X110185086Y-67236204D01*
X110185083Y-67236202D01*
X110050237Y-67185908D01*
X110050238Y-67185908D01*
X109990638Y-67179501D01*
X109990636Y-67179500D01*
X109990628Y-67179500D01*
X109990619Y-67179500D01*
X108094884Y-67179500D01*
X108094878Y-67179501D01*
X108035271Y-67185908D01*
X107900426Y-67236202D01*
X107900419Y-67236206D01*
X107785210Y-67322452D01*
X107785207Y-67322455D01*
X107698961Y-67437664D01*
X107698957Y-67437671D01*
X107648663Y-67572517D01*
X107642256Y-67632116D01*
X107642255Y-67632135D01*
X107642255Y-69527870D01*
X107642256Y-69527876D01*
X107648663Y-69587483D01*
X107698957Y-69722328D01*
X107698961Y-69722335D01*
X107785207Y-69837544D01*
X107785210Y-69837547D01*
X107900419Y-69923793D01*
X107900424Y-69923796D01*
X107961588Y-69946608D01*
X108017521Y-69988478D01*
X108041939Y-70053942D01*
X108042255Y-70062790D01*
X108042255Y-72945500D01*
X108022570Y-73012539D01*
X107969766Y-73058294D01*
X107918255Y-73069500D01*
X107294884Y-73069500D01*
X107294878Y-73069501D01*
X107235271Y-73075908D01*
X107100426Y-73126202D01*
X107100419Y-73126206D01*
X106985210Y-73212452D01*
X106985207Y-73212455D01*
X106898961Y-73327664D01*
X106898957Y-73327671D01*
X106848663Y-73462517D01*
X106842256Y-73522116D01*
X106842255Y-73522135D01*
X106500500Y-73522135D01*
X106500500Y-62624500D01*
X106520185Y-62557461D01*
X106572989Y-62511706D01*
X106624500Y-62500500D01*
X174375500Y-62500500D01*
X174442539Y-62520185D01*
G37*
%TD.AperFunction*%
%TD*%
M02*
